<svg viewBox="0 0 24 24" xmlns="http://www.w3.org/2000/svg">
    <g fill="none">
        <path d="M24 24H0V0h24Z"/>
        <g stroke-linecap="round" stroke-width="1.5" stroke="#999AA4" stroke-linejoin="round">
            <path d="M21 10v7c0 2.2-1.8 4-4 4H7l-.01-.001c-2.21-.01-4-1.8-4-4.01 0 0 0 0 0 0v-10h0a3.999 3.999 0 0 1 3.99-4.01h6"/>
            <path d="m3 13 1.29-1.3h-.01c.94-.95 2.46-.95 3.4-.01 0 0 0 0 0 0l4.29 4.29M7.003 21l6.29-6.3v-.01c.94-.95 2.46-.95 3.4 0l3.93 3.93M18 3l-2.5 2.5M20.5 5.5 18 3M18 3v5"/>
        </g>
    </g>
</svg>