<svg data-name="Layer 3" xmlns="http://www.w3.org/2000/svg" viewBox="0 0 24 24">
    <path d="M0 0h24v24H0Z" fill="none"/>
    <path d="M6 21H4a1 1 0 0 1-1-1v-6a1 1 0 0 1 1-1h2a1 1 0 0 1 1 1v6a1 1 0 0 1-1 1ZM13 17h1.96a1.997 1.997 0 0 0 1.2-.4l2.416-1.812a1.515 1.515 0 0 1 1.98.141h0a1.514 1.514 0 0 1 0 2.142l-2.073 2.073a4.004 4.004 0 0 1-2.044 1.094l-2.93.586a3.999 3.999 0 0 1-1.755-.042l-2.65-.662a3.957 3.957 0 0 0-.969-.12H7"
          fill="none" stroke="#999AA4" stroke-linecap="round" stroke-linejoin="round" stroke-width="1.5"/>
    <path d="M13 17h1.485A1.515 1.515 0 0 0 16 15.485v-.303a1.514 1.514 0 0 0-1.147-1.469l-2.292-.573a4.705 4.705 0 0 0-1.139-.14h0a4.69 4.69 0 0 0-2.605.789L7 15M19.268 6.732a2.5 2.5 0 1 1-3.536 0 2.5 2.5 0 0 1 3.536 0"
          fill="none" stroke="#999AA4" stroke-linecap="round" stroke-linejoin="round" stroke-width="1.5"/>
    <rect x="6.945" y="2.445" width="5.11" height="5.11" rx="1.481" transform="rotate(-45 9.5 5)" stroke-width="1.5"
          stroke="#999AA4" stroke-linecap="round" stroke-linejoin="round" fill="none"/>
</svg>