<svg viewBox="0 0 24 24" xmlns="http://www.w3.org/2000/svg">
    <g fill="none">
        <path d="M0 0h24v24H0Z"/>
        <path stroke="#FFFFFF" stroke-linecap="round" stroke-linejoin="round" stroke-width="1.5"
              d="M21 8.007v7.986a2 2 0 0 1-1.006 1.735l-7 4.007a2.003 2.003 0 0 1-1.988 0l-7-4.007A2 2 0 0 1 3 15.993V8.007a2 2 0 0 1 1.006-1.735l7-4.007a2.003 2.003 0 0 1 1.988 0l7 4.007A2 2 0 0 1 21 8.007ZM3.29 6.97 7.5 9.4M20.71 6.97 16.5 9.4M20.58 17.2H3.42M11.76 2.03 3.2 16.84M12.24 2.03l8.56 14.81"/>
        <path stroke="#FFFFFF" stroke-linecap="round" stroke-linejoin="round" stroke-width="1.5"
              d="M12 17.196 7.5 9.402h9ZM12 17.2V22"/>
    </g>
</svg>