<svg viewBox="0 0 24 24" xmlns="http://www.w3.org/2000/svg"><g stroke-linecap="round" stroke-width="1.5" stroke="#999AA4" fill="none" stroke-linejoin="round"><path d="M20 22h-6a2 2 0 0 1-2-2v-6a2 2 0 0 1 2-2h6a2 2 0 0 1 2 2v6a2 2 0 0 1-2 2Z"/><path d="M11.996 16.239c-.64.15-1.306.241-1.996.241a8.81 8.81 0 0 1-1.661-.159L5.2 17.867c0-1.07-.002-2.089-.001-2.845C3.262 13.704 2 11.614 2 9.24 2 5.223 5.598 2 10 2s8 3.223 8 7.24c0 .981-.218 1.913-.606 2.764"/><path d="M10.177 9.21a.25.25 0 1 1-.354.354.25.25 0 1 1 .354-.354M13.732 9.21a.25.25 0 1 1-.354.354.25.25 0 1 1 .354-.354M6.621 9.21a.25.25 0 1 1-.354.354.25.25 0 1 1 .354-.354M18.41 15.59l-2.82 2.82M18.41 18.41l-2.82-2.82"/></g><path fill="none" d="M0 0h24v24H0Z"/></svg>