<svg viewBox="0 0 24 24" xmlns="http://www.w3.org/2000/svg"><g fill="none"><path d="M0 0h24v24H0"/><path stroke="currentColor" stroke-linecap="round" stroke-linejoin="round" stroke-width="1.5" d="M8.294 10.705a.294.294 0 1 0-.588 0 .294.294 0 0 0 .588 0"/><path stroke="currentColor" stroke-linecap="round" stroke-linejoin="round" stroke-width="1.5" d="M8 10.411V5.5A2.5 2.5 0 0 1 10.5 3v0A2.5 2.5 0 0 1 13 5.5v.572"/><path stroke="currentColor" stroke-linecap="round" stroke-linejoin="round" stroke-width="1.5" d="M10.162 15.183a4.972 4.972 0 0 0 2.838.889 4.96 4.96 0 0 0 1.868-.369l3.009 3.005c.188.187.442.292.706.292H20a1 1 0 0 0 1-1v-1.412a1 1 0 0 0-.294-.708l-3.044-3.04c.21-.551.338-1.143.338-1.768a5 5 0 0 0-5-5 4.94 4.94 0 0 0-2.176.518"/><path stroke="currentColor" stroke-linecap="round" stroke-linejoin="round" stroke-width="1.5" d="M6.004 15.268a4.971 4.971 0 0 1-1.539-1.038 5 5 0 0 1 0-7.071 5 5 0 0 1 7.071 0 5 5 0 0 1 0 7.071 4.975 4.975 0 0 1-1.532 1.034l.003 4.237a1 1 0 0 1-.293.708l-.998.998a.999.999 0 0 1-1.414 0L6.3 20.205a1 1 0 0 1-.293-.706l-.003-4.231Z"/><path d="M24 0v24H0V0h24Z"/></g></svg>