<svg data-name="Layer 3" xmlns="http://www.w3.org/2000/svg" viewBox="0 0 24 24"><path fill="none" stroke="currentColor" stroke-linecap="round" stroke-linejoin="round" stroke-width="1.5" d="M12 3v1.5M15.747 5.51l.753-1.304M18.49 8.253l1.304-.753M19.5 12H21M3 12h1.5M5.51 8.253 4.206 7.5M8.253 5.51 7.5 4.206M12 19.5V21M7.5 19.794l.753-1.304M5.51 15.747l-1.304.753M19.794 16.5l-1.304-.753M15.747 18.49l.753 1.304M10 10.01a1.954 1.954 0 0 1 1.984-1.51A1.914 1.914 0 0 1 14 10.292c0 1.347-1.926 1.792-1.926 2.688M12.184 15.389a.111.111 0 1 1-.111-.111.111.111 0 0 1 .111.111"/><path fill="none" d="M0 0h24v24H0z"/></svg>